<?xml version="1.0" encoding="UTF-8" standalone="no"?>
<svg
   viewBox="0 0 448 512"
   version="1.1"
   id="svg557"
   sodipodi:docname="gcp.svg"
   xml:space="preserve"
   inkscape:version="1.2.2 (b0a8486, 2022-12-01)"
   xmlns:inkscape="http://www.inkscape.org/namespaces/inkscape"
   xmlns:sodipodi="http://sodipodi.sourceforge.net/DTD/sodipodi-0.dtd"
   xmlns="http://www.w3.org/2000/svg"
   xmlns:svg="http://www.w3.org/2000/svg"><defs
     id="defs561"><style
       id="style898">.cls-1{fill:#ea4335;}.cls-2{fill:#4285f4;}.cls-3{fill:#34a853;}.cls-4{fill:#fbbc05;}.cls-5{fill:#5f6368;}</style></defs><sodipodi:namedview
     id="namedview559"
     pagecolor="#ffffff"
     bordercolor="#666666"
     borderopacity="1.0"
     inkscape:showpageshadow="2"
     inkscape:pageopacity="0.0"
     inkscape:pagecheckerboard="0"
     inkscape:deskcolor="#d1d1d1"
     showgrid="false"
     inkscape:zoom="0.8996268"
     inkscape:cx="177.29574"
     inkscape:cy="309.01703"
     inkscape:window-width="1440"
     inkscape:window-height="872"
     inkscape:window-x="0"
     inkscape:window-y="28"
     inkscape:window-maximized="0"
     inkscape:current-layer="svg557" /><path
     id="path555"
     d="M 31.900391 32 C 14.300408 32 -4.7369468e-15 46.500799 0 64.300781 L 0 447.69922 C 0 465.4992 14.300408 480 31.900391 480 L 416 480 C 433.59998 480 448 465.4992 448 447.69922 L 448 64.300781 C 448 46.500799 433.59998 32 416 32 L 31.900391 32 z M 215.1875 112.42773 A 139.62507 139.62507 0 0 1 315.57227 147.14258 L 315.48633 147.88281 L 316.11719 147.25195 A 139.95206 139.95206 0 0 1 358.29883 215.26562 A 100.93116 100.93116 0 0 1 300.9668 399.79688 L 223.35938 399.79688 L 222.92383 399.36133 L 145.64453 399.36133 A 100.38618 100.38618 0 0 1 84.716797 379.08789 L 84.826172 378.65234 L 84.716797 378.76172 A 100.93116 100.93116 0 0 1 90.927734 214.69336 A 16.894525 16.894525 0 0 0 88.421875 215.26562 A 139.62507 139.62507 0 0 1 215.1875 112.42773 z M 226.03711 174.17969 A 77.496819 77.496819 0 0 0 166.24609 199.46094 C 165.95911 199.40354 165.61739 199.55837 165.26172 199.78516 A 100.82216 100.82216 0 0 1 226.08594 237.39258 L 181.07031 282.4082 A 38.802908 38.802908 0 1 0 129.73242 333.74609 L 129.70508 333.77344 A 38.584914 38.584914 0 0 0 145.64453 337.23438 L 223.25195 337.23438 L 223.25195 337.7793 L 223.35938 337.66992 L 300.9668 337.66992 A 38.802908 38.802908 0 1 0 300.9668 260.06445 L 300.9668 252.32422 A 77.496819 77.496819 0 0 0 273.16016 191.39648 L 272.29883 191.39648 A 77.496819 77.496819 0 0 0 226.03711 174.17969 z " /></svg>
